<svg xmlns="http://www.w3.org/2000/svg" width="30" height="30" viewBox="0 0 30 30">
  <path id="ic_settings_24px" d="M28.732,18.47A11.376,11.376,0,0,0,28.84,17a11.376,11.376,0,0,0-.108-1.47l3.254-2.475a.743.743,0,0,0,.185-.96l-3.084-5.19a.786.786,0,0,0-.941-.33l-3.84,1.5A11.347,11.347,0,0,0,21.7,6.605L21.114,2.63A.746.746,0,0,0,20.358,2H14.19a.746.746,0,0,0-.756.63l-.586,3.975a11.932,11.932,0,0,0-2.606,1.47L6.4,6.575a.762.762,0,0,0-.941.33L2.378,12.1a.726.726,0,0,0,.185.96L5.816,15.53A11.577,11.577,0,0,0,5.708,17a11.577,11.577,0,0,0,.108,1.47L2.563,20.945a.743.743,0,0,0-.185.96L5.462,27.1a.786.786,0,0,0,.941.33l3.84-1.5a11.347,11.347,0,0,0,2.606,1.47l.586,3.975a.746.746,0,0,0,.756.63h6.168a.746.746,0,0,0,.756-.63l.586-3.975a11.932,11.932,0,0,0,2.606-1.47l3.84,1.5a.762.762,0,0,0,.941-.33l3.084-5.19a.743.743,0,0,0-.185-.96ZM17.274,22.25a5.252,5.252,0,1,1,5.4-5.25A5.331,5.331,0,0,1,17.274,22.25Z" transform="translate(-2.271 -2)" fill="#9d8159"/>
</svg>
